<svg xmlns="http://www.w3.org/2000/svg" viewBox="8 7 48 48">
    <title>Flex</title>
    <path d="M18.55,32.89h0a13.17,13.17,0,0,1,1.77-5.17c.13-.23.5-.6.11-1a15.68,15.68,0,0,1-2.11-4.19.5.5,0,0,0-.89-.19A18.41,18.41,0,0,0,13,34.17h0a9.9,9.9,0,1,0,5.59-1.28Z" />
    <path d="M27,26.85a9.89,9.89,0,0,0,13.16-3h0A13.17,13.17,0,0,1,43.75,28c.13.23.27.73.81.6a15.68,15.68,0,0,1,4.68.28.5.5,0,0,0,.61-.67,18.41,18.41,0,0,0-8-9.82h0A9.9,9.9,0,1,0,27,26.85Z" />
    <path d="M54.73,37.87a9.89,9.89,0,0,0-17.52,9.18h0a13.17,13.17,0,0,1-5.37,1c-.27,0-.76-.14-.92.4a15.67,15.67,0,0,1-2.6,3.9.5.5,0,0,0,.27.87,18.41,18.41,0,0,0,12.51-2h0A9.9,9.9,0,0,0,54.73,37.87Z" />
</svg>

